<mxfile host="app.diagrams.net" agent="Mozilla/5.0 (Windows NT 10.0; Win64; x64) AppleWebKit/537.36 (KHTML, like Gecko) Chrome/133.0.0.0 Safari/537.36" version="26.1.0">
  <diagram name="Page-1" id="9f46799a-70d6-7492-0946-bef42562c5a5">
    <mxGraphModel dx="2074" dy="1098" grid="1" gridSize="10" guides="1" tooltips="1" connect="1" arrows="1" fold="1" page="1" pageScale="1" pageWidth="1100" pageHeight="850" background="none" math="0" shadow="0">
      <root>
        <mxCell id="0" />
        <mxCell id="1" parent="0" />
        <mxCell id="eI9wI4SPfCDDGiGvA2EJ-2" value="Character" style="rounded=1;whiteSpace=wrap;html=1;" vertex="1" parent="1">
          <mxGeometry x="190" y="90" width="120" height="60" as="geometry" />
        </mxCell>
        <mxCell id="eI9wI4SPfCDDGiGvA2EJ-3" value="HUD" style="rounded=1;whiteSpace=wrap;html=1;" vertex="1" parent="1">
          <mxGeometry x="540" y="90" width="120" height="60" as="geometry" />
        </mxCell>
        <mxCell id="eI9wI4SPfCDDGiGvA2EJ-4" value="Interface" style="rounded=1;whiteSpace=wrap;html=1;" vertex="1" parent="1">
          <mxGeometry x="710" y="90" width="120" height="60" as="geometry" />
        </mxCell>
        <mxCell id="eI9wI4SPfCDDGiGvA2EJ-5" value="Component" style="rounded=1;whiteSpace=wrap;html=1;" vertex="1" parent="1">
          <mxGeometry x="870" y="90" width="120" height="60" as="geometry" />
        </mxCell>
        <mxCell id="eI9wI4SPfCDDGiGvA2EJ-6" value="Weapon" style="rounded=1;whiteSpace=wrap;html=1;" vertex="1" parent="1">
          <mxGeometry x="370" y="90" width="120" height="60" as="geometry" />
        </mxCell>
        <mxCell id="eI9wI4SPfCDDGiGvA2EJ-7" value="GameMode" style="rounded=1;whiteSpace=wrap;html=1;" vertex="1" parent="1">
          <mxGeometry x="1030" y="90" width="120" height="60" as="geometry" />
        </mxCell>
        <mxCell id="eI9wI4SPfCDDGiGvA2EJ-8" value="Controller" style="rounded=1;whiteSpace=wrap;html=1;" vertex="1" parent="1">
          <mxGeometry x="1190" y="90" width="120" height="60" as="geometry" />
        </mxCell>
        <mxCell id="eI9wI4SPfCDDGiGvA2EJ-9" value="PickUpItem" style="rounded=1;whiteSpace=wrap;html=1;" vertex="1" parent="1">
          <mxGeometry x="1350" y="90" width="120" height="60" as="geometry" />
        </mxCell>
        <mxCell id="eI9wI4SPfCDDGiGvA2EJ-10" value="Structure Type" style="rounded=1;whiteSpace=wrap;html=1;" vertex="1" parent="1">
          <mxGeometry x="1500" y="90" width="120" height="60" as="geometry" />
        </mxCell>
        <mxCell id="eI9wI4SPfCDDGiGvA2EJ-11" value="Weapon" style="swimlane;whiteSpace=wrap;html=1;" vertex="1" parent="1">
          <mxGeometry x="370" y="180" width="120" height="130" as="geometry" />
        </mxCell>
        <mxCell id="eI9wI4SPfCDDGiGvA2EJ-13" value="Character" style="swimlane;whiteSpace=wrap;html=1;" vertex="1" parent="1">
          <mxGeometry x="200" y="180" width="120" height="130" as="geometry" />
        </mxCell>
        <mxCell id="eI9wI4SPfCDDGiGvA2EJ-14" value="AnimInstance&lt;div&gt;Character 1&lt;/div&gt;&lt;div&gt;Character 2&lt;/div&gt;&lt;div&gt;Character 3&lt;/div&gt;" style="text;html=1;align=center;verticalAlign=middle;resizable=0;points=[];autosize=1;strokeColor=none;fillColor=none;" vertex="1" parent="eI9wI4SPfCDDGiGvA2EJ-13">
          <mxGeometry x="10" y="40" width="100" height="70" as="geometry" />
        </mxCell>
      </root>
    </mxGraphModel>
  </diagram>
</mxfile>
